<svg data-name="icon" xmlns="http://www.w3.org/2000/svg" viewBox="0 0 24 24"><title>basic</title><path d="M17.157 19.874v-5.02l4.508-2.488-.003 1.788v.425l-.005 2.944-4.5 2.577zm-14.833-2.35v-5.16l4.512 2.49v5.248zm4.852-2.852l-.016-.01V9.42l4.677 2.668v5.159zm14.5-8.01l-.01 5.333-4.51 2.49v-5.24zM6.997 3.43L2 6.287v11.424l4.998 2.856 4.998-2.856 5.035 2.856L22 17.712V6.288l-4.97-2.846-4.694 2.85 4.82 2.953-.323.186v5.233l-4.67 2.578v-5.137l4.67-2.672-4.837-2.95L7.16 9.418l-.325-.185v5.25l-4.51-2.49V6.66l4.51 2.573 4.833-2.945z" fill="#01579b"/></svg>